<?xml version="1.0" encoding="UTF-8"?>
<svg version="1.1" xmlns="http://www.w3.org/2000/svg" width="500" height="500">
<path d="M0 0 C3.87742377 1.42793044 7.16530493 3.55788767 10.62109375 5.80078125 C11.31138672 6.23970703 12.00167969 6.67863281 12.71289062 7.13085938 C15.85072265 9.13252852 18.89117086 11.14351945 21.875 13.375 C24.49186116 15.23458698 24.49186116 15.23458698 27.06835938 14.77734375 C29.96084612 13.9046293 31.88080207 12.72898861 34.3359375 10.9765625 C35.19509766 10.38423828 36.05425781 9.79191406 36.93945312 9.18164062 C38.7301307 7.92568833 40.51401446 6.6599947 42.29101562 5.38476562 C48.85974966 0.8924404 48.85974966 0.8924404 53.0078125 1.375 C55.65521345 2.97117021 58.11983287 4.58713858 60.55859375 6.48828125 C64.88032091 9.72813026 69.27148581 12.67106508 73.87109375 15.48828125 C80.57505011 19.6147237 87.14453609 23.9180712 93.68359375 28.30078125 C102.54088454 34.23434069 111.42510865 40.12330653 120.34082031 45.96859741 C122.36654769 47.29779831 124.39047399 48.62970385 126.4140625 49.9621582 C132.60398225 54.033484 138.80555817 58.08132147 145.06684875 62.0422821 C147.79500105 63.76950873 150.51522886 65.50899866 153.23501587 67.24935913 C154.52597529 68.07016193 155.82102116 68.88457529 157.12020874 69.69229126 C158.91214742 70.80671835 160.6893303 71.9416799 162.46484375 73.08203125 C163.47611328 73.71818359 164.48738281 74.35433594 165.52929688 75.00976562 C167.68359375 76.98828125 167.68359375 76.98828125 168.00976562 79.73242188 C167.90212891 80.47685547 167.79449219 81.22128906 167.68359375 81.98828125 C162.51844554 82.42386152 160.0193196 81.3560921 155.7890625 78.4375 C154.96333488 77.8773394 154.96333488 77.8773394 154.1209259 77.30586243 C152.36178805 76.10865697 150.61632144 74.89315088 148.87109375 73.67578125 C147.17400492 72.5098405 145.47421954 71.34791046 143.77423096 70.186203 C142.60053343 69.38383507 141.42782982 68.58001161 140.25604248 67.77485657 C135.0817974 64.22897379 129.82627546 60.81828504 124.55207825 57.42352295 C115.80067623 51.78667462 107.11522753 46.05008043 98.42626953 40.31762695 C95.55557427 38.42378925 92.68409391 36.53114663 89.8125 34.63867188 C62.07536694 16.35272996 62.07536694 16.35272996 55.42797852 11.71875 C52.88334883 9.78117442 52.88334883 9.78117442 50.265625 9.953125 C46.66392606 11.39707389 43.58288797 13.39084137 40.37109375 15.55078125 C39.40333008 16.18790039 39.40333008 16.18790039 38.41601562 16.83789062 C36.83385421 17.88094518 35.25806874 18.93365997 33.68359375 19.98828125 C37.1770923 22.85353318 40.75814036 25.45703736 44.515625 27.96484375 C45.06427719 28.3315065 45.61292938 28.69816925 46.1782074 29.07594299 C47.949028 30.2577961 49.7223538 31.43581488 51.49609375 32.61328125 C52.40905212 33.22086777 52.40905212 33.22086777 53.3404541 33.84072876 C60.74490936 38.76700738 68.17929915 43.63063506 75.75170898 48.29589844 C91.65281389 58.11391836 107.16294718 68.58305378 122.68359375 78.98828125 C122.35359375 80.63828125 122.02359375 82.28828125 121.68359375 83.98828125 C116.45856232 83.52841505 113.05078001 81.58376776 108.87109375 78.61328125 C107.53992128 77.69666823 106.20785582 76.78135101 104.875 75.8671875 C104.18680176 75.39168457 103.49860352 74.91618164 102.78955078 74.42626953 C99.33788 72.06940182 95.82395116 69.81108834 92.30859375 67.55078125 C90.87365479 66.62506685 89.43875922 65.69928518 88.00390625 64.7734375 C87.29008789 64.31340332 86.57626953 63.85336914 85.84082031 63.37939453 C82.28556953 61.08674865 78.73478099 58.78721418 75.18359375 56.48828125 C73.76304703 55.56896994 72.34247412 54.64969909 70.921875 53.73046875 C70.2201416 53.27639648 69.5184082 52.82232422 68.79541016 52.35449219 C66.71019795 51.00549248 64.62467343 49.65697692 62.5390625 48.30859375 C47.44137263 38.54639127 32.37023752 28.74349343 17.30859375 18.92578125 C16.33970215 18.29446289 15.37081055 17.66314453 14.37255859 17.01269531 C12.99898193 16.11695801 12.99898193 16.11695801 11.59765625 15.203125 C10.73817383 14.64866699 9.87869141 14.09420898 8.99316406 13.52294922 C7.58883447 12.58979744 6.20544034 11.62253628 4.86621094 10.59814453 C3.21454416 9.27884211 3.21454416 9.27884211 0.68359375 7.98828125 C-1.88921502 8.36179263 -1.88921502 8.36179263 -4.31640625 9.98828125 C-5.36570312 10.60058594 -6.415 11.21289062 -7.49609375 11.84375 C-8.73088889 12.61628068 -9.96244659 13.39400069 -11.19140625 14.17578125 C-12.21439819 14.82075562 -12.21439819 14.82075562 -13.25805664 15.47875977 C-22.43105698 21.28849549 -31.50134075 27.25885357 -40.58642578 33.20458984 C-44.44739208 35.72723515 -48.31784988 38.23502449 -52.19140625 40.73828125 C-53.20835571 41.39558228 -53.20835571 41.39558228 -54.24584961 42.06616211 C-55.59318481 42.93680523 -56.94059613 43.80733056 -58.28808594 44.67773438 C-61.08501875 46.4849004 -63.8806744 48.29403705 -66.67626953 50.10327148 C-68.10424203 51.02739743 -69.53230209 51.95138809 -70.96044922 52.87524414 C-75.07153275 55.53472164 -79.18084183 58.19690151 -83.28808594 60.86230469 C-84.64154181 61.73876023 -85.99636529 62.61310743 -87.35253906 63.48535156 C-91.27963155 66.01183493 -95.18838896 68.56247773 -99.0760498 71.14936829 C-101.3371092 72.65017437 -103.60619961 74.13856322 -105.87646484 75.62539673 C-107.54165708 76.72198307 -109.19671099 77.83391486 -110.8515625 78.94604492 C-111.87636719 79.61482666 -112.90117188 80.2836084 -113.95703125 80.97265625 C-114.87000977 81.57819336 -115.78298828 82.18373047 -116.72363281 82.80761719 C-119.77049293 84.19505744 -121.17684315 83.98665382 -124.31640625 82.98828125 C-124.3359375 80.83203125 -124.3359375 80.83203125 -123.31640625 77.98828125 C-120.7720427 75.79611499 -117.89634283 74.18044342 -115.00390625 72.48828125 C-113.27885959 71.44320057 -111.55493974 70.39625814 -109.83203125 69.34765625 C-108.93162109 68.80431641 -108.03121094 68.26097656 -107.10351562 67.70117188 C-101.52719599 64.27409947 -96.09198039 60.62449593 -90.64135742 57.00195312 C-89.84189697 56.47666016 -89.04243652 55.95136719 -88.21875 55.41015625 C-87.15901978 54.70777832 -87.15901978 54.70777832 -86.07788086 53.99121094 C-84.31640625 52.98828125 -84.31640625 52.98828125 -82.31640625 52.98828125 C-82.31640625 40.77828125 -82.31640625 28.56828125 -82.31640625 15.98828125 C-77.88203125 15.96765625 -73.44765625 15.94703125 -68.87890625 15.92578125 C-67.47842041 15.91667725 -66.07793457 15.90757324 -64.63500977 15.89819336 C-62.99423462 15.89444702 -62.99423462 15.89444702 -61.3203125 15.890625 C-60.19439697 15.88538818 -59.06848145 15.88015137 -57.90844727 15.87475586 C-55.31640625 15.98828125 -55.31640625 15.98828125 -54.31640625 16.98828125 C-54.07961909 19.68063901 -53.894426 22.35326281 -53.75390625 25.05078125 C-53.71072266 25.80939453 -53.66753906 26.56800781 -53.62304688 27.34960938 C-53.51666992 29.22893563 -53.41600691 31.10858369 -53.31640625 32.98828125 C-52.52693604 32.47031982 -51.73746582 31.9523584 -50.92407227 31.41870117 C-24.48782118 14.07638489 -24.48782118 14.07638489 -14.31640625 7.48828125 C-13.66099854 7.06313232 -13.00559082 6.6379834 -12.33032227 6.19995117 C-10.66338624 5.1226038 -8.99021296 4.05492278 -7.31640625 2.98828125 C-6.45015625 2.37984375 -5.58390625 1.77140625 -4.69140625 1.14453125 C-2.31640625 -0.01171875 -2.31640625 -0.01171875 0 0 Z M-76.31640625 21.98828125 C-76.31640625 30.56828125 -76.31640625 39.14828125 -76.31640625 47.98828125 C-71.86140625 45.51328125 -71.86140625 45.51328125 -67.31640625 42.98828125 C-65.30546875 42.09109375 -65.30546875 42.09109375 -63.25390625 41.17578125 C-61.41921333 40.05620891 -61.41921333 40.05620891 -60.31640625 37.98828125 C-59.70227793 32.44996044 -59.99466425 27.64174778 -60.31640625 21.98828125 C-65.59640625 21.98828125 -70.87640625 21.98828125 -76.31640625 21.98828125 Z " fill="#010101" transform="translate(239.31640625,118.01171875)"/>
<path d="M0 0 C2.54662692 1.69520592 4.92264929 3.48928004 7.29296875 5.421875 C7.92976563 5.92203125 8.5665625 6.4221875 9.22265625 6.9375 C17.80754866 14.49220532 22.58645549 26.81288009 23.50390625 37.9921875 C23.9945022 51.23827816 18.90978512 61.88889013 12.66796875 73.171875 C11.91209898 74.56158002 11.15765097 75.95205917 10.40454102 77.34326172 C8.83599107 80.23857937 7.26137735 83.13047963 5.68310547 86.02050781 C3.31199081 90.37344784 0.98568994 94.74919843 -1.328125 99.1328125 C-1.70275879 99.84207886 -2.07739258 100.55134521 -2.46337891 101.28210449 C-3.91238448 104.0264189 -5.36064548 106.7711243 -6.80767822 109.51647949 C-11.59609108 118.59135699 -16.56420024 127.54291598 -21.70703125 136.421875 C-24.01098633 136.23608398 -24.01098633 136.23608398 -26.70703125 135.421875 C-28.3659668 133.27758789 -28.3659668 133.27758789 -29.84375 130.39453125 C-30.41206543 129.30889893 -30.98038086 128.2232666 -31.56591797 127.10473633 C-32.17564064 125.89804263 -32.78517274 124.69125263 -33.39453125 123.484375 C-34.04134914 122.23564742 -34.68998954 120.98786239 -35.34033203 119.7409668 C-36.7356487 117.06115215 -38.12184165 114.37687758 -39.50244141 111.68945312 C-41.75962486 107.30623406 -44.06210904 102.94777983 -46.375 98.59375 C-46.7672728 97.85527328 -47.15954559 97.11679657 -47.56370544 96.35594177 C-48.35131343 94.87369146 -49.13904753 93.39150815 -49.9269104 91.90939331 C-51.04537753 89.8033916 -52.16141685 87.69612924 -53.27612305 85.58813477 C-53.63129501 84.91656845 -53.98646698 84.24500214 -54.35240173 83.55308533 C-55.05950935 82.21399263 -55.76530241 80.87420491 -56.46974182 79.53370667 C-58.33847443 75.98269102 -60.23600048 72.45120361 -62.17675781 68.93896484 C-62.58511871 68.19116257 -62.99347961 67.44336029 -63.41421509 66.67289734 C-64.19045722 65.25271793 -64.97510567 63.83708399 -65.77011108 62.42732239 C-71.39050352 52.07906432 -72.35735491 40.13404163 -69.51953125 28.734375 C-65.35420759 15.31929503 -58.55586365 6.85115628 -46.70703125 -0.578125 C-32.02321231 -7.73546133 -14.33124571 -8.35472333 0 0 Z M-54.01953125 13.671875 C-61.50130975 22.75581213 -65.32890145 32.86849248 -64.55273438 44.79223633 C-63.40509412 53.47567359 -59.41740749 60.64508796 -55.33203125 68.234375 C-54.60480648 69.61104648 -53.8787455 70.98833332 -53.15380859 72.36621094 C-51.02660579 76.3965604 -48.87184751 80.41162651 -46.70703125 84.421875 C-46.124375 85.50194824 -45.54171875 86.58202148 -44.94140625 87.69482422 C-42.47197333 92.25683182 -39.98328373 96.80779756 -37.48046875 101.3515625 C-33.10525417 109.31240941 -28.91004477 117.36919865 -24.70703125 125.421875 C-24.04703125 125.421875 -23.38703125 125.421875 -22.70703125 125.421875 C-22.28518555 124.59800293 -21.86333984 123.77413086 -21.42871094 122.92529297 C-7.20969423 95.18548039 -7.20969423 95.18548039 -0.33203125 82.671875 C0.14371338 81.80626953 0.61945801 80.94066406 1.10961914 80.04882812 C1.5761792 79.19998047 2.04273926 78.35113281 2.5234375 77.4765625 C5.38296162 72.27135871 8.19649947 67.04285108 10.98046875 61.796875 C11.40312012 61.00829102 11.82577148 60.21970703 12.26123047 59.40722656 C12.64682129 58.67729492 13.03241211 57.94736328 13.4296875 57.1953125 C13.76701904 56.56028809 14.10435059 55.92526367 14.4519043 55.27099609 C18.08492064 47.28363303 17.45500156 35.64887776 14.66796875 27.484375 C9.3670285 15.09691463 1.66032558 7.60755468 -10.70703125 2.421875 C-26.14954235 -3.30967239 -42.95961143 1.92719467 -54.01953125 13.671875 Z " fill="#010101" transform="translate(261.70703125,165.578125)"/>
<path d="M0 0 C0 2.31 0 4.62 0 7 C1.65 7 3.3 7 5 7 C4.44854729 12.23880078 3.57077907 16.97350697 2 22 C1.34 22 0.68 22 0 22 C0 29.59 0 37.18 0 45 C-4.95 45 -9.9 45 -15 45 C-15 37.41 -15 29.82 -15 22 C-16.32 22 -17.64 22 -19 22 C-19 24.97 -19 27.94 -19 31 C-18.01 31 -17.02 31 -16 31 C-16.99 35.62 -17.98 40.24 -19 45 C-29.23 45 -39.46 45 -50 45 C-50.495 41.535 -50.495 41.535 -51 38 C-51.66 40.31 -52.32 42.62 -53 45 C-56.87460078 45.14584726 -60.74849117 45.23425444 -64.625 45.3125 C-66.26662109 45.3753418 -66.26662109 45.3753418 -67.94140625 45.43945312 C-77.05919408 45.57760143 -77.05919408 45.57760143 -80.65625 42.6640625 C-86.25490173 36.3002617 -86.54092534 30.69201538 -86.35546875 22.390625 C-85.76789492 16.78607464 -84.03373665 12.91047989 -79.9375 9.0625 C-76.49049 7.1722042 -73.75134858 6.88005001 -69.89453125 6.90234375 C-68.91162109 6.90556641 -67.92871094 6.90878906 -66.91601562 6.91210938 C-65.37977539 6.92467773 -65.37977539 6.92467773 -63.8125 6.9375 C-62.25885742 6.94426758 -62.25885742 6.94426758 -60.67382812 6.95117188 C-58.11582734 6.9629599 -55.55794267 6.97941485 -53 7 C-52.505 11.455 -52.505 11.455 -52 16 C-51.34 13.03 -50.68 10.06 -50 7 C-46.29181703 6.91243695 -42.58390237 6.85941985 -38.875 6.8125 C-37.82828125 6.78736328 -36.7815625 6.76222656 -35.703125 6.73632812 C-25.56252616 6.64005662 -25.56252616 6.64005662 -21 10 C-19.125 12.6875 -19.125 12.6875 -18 15 C-17.89945312 14.16855469 -17.79890625 13.33710938 -17.6953125 12.48046875 C-17.1024367 9.05722011 -16.44673018 6.16472227 -15 3 C-10.40950283 0.01139507 -5.34481729 -0.11494231 0 0 Z M-12 5 C-12 6.65 -12 8.3 -12 10 C-12.66 10 -13.32 10 -14 10 C-14.33 12.97 -14.66 15.94 -15 19 C-14.01 19 -13.02 19 -12 19 C-12 26.92 -12 34.84 -12 43 C-9.03 43 -6.06 43 -3 43 C-3 35.08 -3 27.16 -3 19 C-2.01 19 -1.02 19 0 19 C0.66 16.03 1.32 13.06 2 10 C0.35 10 -1.3 10 -3 10 C-3 7.69 -3 5.38 -3 3 C-6.15332957 3 -8.99457031 4.10950231 -12 5 Z M-80 13 C-83.83275651 18.88601892 -84.5716869 24.91937042 -83.3125 31.6875 C-82.2766393 35.61429221 -81.13764507 38.27520296 -78 41 C-75.32191254 41.97478279 -72.82340949 42.48237493 -70 43 C-68.43727811 38.60746227 -68.43727811 38.60746227 -68 34 C-68.9590625 33.566875 -68.9590625 33.566875 -69.9375 33.125 C-72 32 -72 32 -73 30 C-73.45977011 22.75862069 -73.45977011 22.75862069 -71.75 19.9375 C-70 19 -70 19 -66 20 C-65.67 27.59 -65.34 35.18 -65 43 C-61.7 43 -58.4 43 -55 43 C-54.67 40.03 -54.34 37.06 -54 34 C-54.66 34 -55.32 34 -56 34 C-56 26.08 -56 18.16 -56 10 C-58.64 10 -61.28 10 -64 10 C-64 10.66 -64 11.32 -64 12 C-64.515625 11.67 -65.03125 11.34 -65.5625 11 C-70.84430489 8.83310569 -75.62528008 9.35440007 -80 13 Z M-47 10 C-48.49821059 13.37097383 -49 15.20442119 -49 19 C-48.34 19 -47.68 19 -47 19 C-47 26.92 -47 34.84 -47 43 C-44.03 43 -41.06 43 -38 43 C-38 32.11 -38 21.22 -38 10 C-40.97 10 -43.94 10 -47 10 Z M-33 10 C-33.66 12.97 -34.32 15.94 -35 19 C-33.515 19.99 -33.515 19.99 -32 21 C-31.56762695 23.24658203 -31.56762695 23.24658203 -31.48828125 26.0078125 C-31.45283203 26.99394531 -31.41738281 27.98007812 -31.38085938 28.99609375 C-31.35830078 30.02863281 -31.33574219 31.06117188 -31.3125 32.125 C-31.27833984 33.16527344 -31.24417969 34.20554687 -31.20898438 35.27734375 C-31.12632942 37.85145507 -31.05723845 40.42521829 -31 43 C-28.03 43 -25.06 43 -22 43 C-20.50178941 39.62902617 -20 37.79557881 -20 34 C-20.66 34 -21.32 34 -22 34 C-21.97381592 33.41508789 -21.94763184 32.83017578 -21.9206543 32.22753906 C-21.81650244 29.56863434 -21.75162228 26.91015856 -21.6875 24.25 C-21.64560547 23.32960938 -21.60371094 22.40921875 -21.56054688 21.4609375 C-21.37642439 15.90790075 -21.37642439 15.90790075 -24.3125 11.375 C-27.44560904 9.77201398 -29.52614438 9.67685064 -33 10 Z M-70 21 C-71.41577477 22.18424326 -71.41577477 22.18424326 -71.0625 25.5625 C-71.041875 26.696875 -71.02125 27.83125 -71 29 C-69.02 29.99 -69.02 29.99 -67 31 C-67.33 27.7 -67.66 24.4 -68 21 C-68.66 21 -69.32 21 -70 21 Z M-53 22 C-53 24.97 -53 27.94 -53 31 C-52.01 31 -51.02 31 -50 31 C-50 28.03 -50 25.06 -50 22 C-50.99 22 -51.98 22 -53 22 Z " fill="#020302" transform="translate(424,298)"/>
<path d="M0 0 C4.29 0 8.58 0 13 0 C13.33 6.93 13.66 13.86 14 21 C14.99 18.69 15.98 16.38 17 14 C21.29 14 25.58 14 30 14 C27.18796992 23.58646617 27.18796992 23.58646617 25.75 26.75 C24.08025553 31.75923341 26.52112591 36.59877021 28.5625 41.1875 C31 46.67705382 31 46.67705382 31 50 C26.38 50 21.76 50 17 50 C16.01 47.36 15.02 44.72 14 42 C13.67 44.64 13.34 47.28 13 50 C9.04 50 5.08 50 1 50 C1 37.79 1 25.58 1 13 C0.01 13 -0.98 13 -2 13 C-1.47694567 8.59139921 -0.87251184 4.36255922 0 0 Z " fill="#010101" transform="translate(114,292)"/>
<path d="M0 0 C1.32874146 0.00374634 1.32874146 0.00374634 2.68432617 0.00756836 C4.36619019 0.02122437 4.36619019 0.02122437 6.08203125 0.03515625 C9.65015625 0.05578125 13.21828125 0.07640625 16.89453125 0.09765625 C16.89453125 8.01765625 16.89453125 15.93765625 16.89453125 24.09765625 C17.55453125 24.09765625 18.21453125 24.09765625 18.89453125 24.09765625 C18.75284988 25.53557141 18.60602082 26.97297995 18.45703125 28.41015625 C18.37582031 29.21066406 18.29460937 30.01117188 18.2109375 30.8359375 C17.89453125 33.09765625 17.89453125 33.09765625 16.89453125 36.09765625 C13.16551311 36.18502361 9.4367596 36.23817107 5.70703125 36.28515625 C4.12438477 36.32286133 4.12438477 36.32286133 2.50976562 36.36132812 C0.97739258 36.37583008 0.97739258 36.37583008 -0.5859375 36.390625 C-1.52332764 36.40633545 -2.46071777 36.4220459 -3.42651367 36.43823242 C-6.63578527 36.03023699 -8.48879619 34.96520078 -11.10546875 33.09765625 C-15.44084187 27.13496542 -15.97782423 20.22364441 -15.10546875 13.09765625 C-13.96295618 8.18238636 -12.15556609 4.26179479 -8.10546875 1.09765625 C-5.10530963 0.09760321 -3.13123119 -0.0180996 0 0 Z M0.89453125 12.09765625 C-0.79411463 13.7347494 -0.79411463 13.7347494 -2.10546875 16.09765625 C-1.88509247 19.77059421 -1.73580329 21.46732171 0.89453125 24.09765625 C1.88453125 24.09765625 2.87453125 24.09765625 3.89453125 24.09765625 C3.97544096 22.4734688 4.0336812 20.8481388 4.08203125 19.22265625 C4.13423828 17.86527344 4.13423828 17.86527344 4.1875 16.48046875 C4.04248047 15.30097656 4.04248047 15.30097656 3.89453125 14.09765625 C2.90453125 13.43765625 1.91453125 12.77765625 0.89453125 12.09765625 Z " fill="#000000" transform="translate(210.10546875,305.90234375)"/>
<path d="M0 0 C6.51151125 6.69238656 8.5775954 14.13802021 8.45703125 23.24609375 C7.97277854 30.4185159 5.14190269 35.32965059 0.26953125 40.55078125 C-4.96992179 45.12136794 -11.81249553 47.43234173 -18.75 47.3125 C-26.51500015 46.43775995 -32.70849281 43.79855579 -38 38 C-44.0989461 30.23770497 -44.89100576 23.08168264 -43.75 13.3125 C-41.41321598 5.55437704 -36.92184034 0.25664288 -29.9453125 -3.71484375 C-19.38700412 -8.46827304 -9.36144837 -5.74452513 0 0 Z M-34.33984375 9.3359375 C-37.72016495 14.07400544 -38.55646065 18.5432046 -37.75 24.3125 C-36.02276812 30.76228994 -33.10572835 34.45057638 -27.65234375 38.21875 C-23.16555057 40.79842575 -18.77758144 40.9766659 -13.75 40.3125 C-7.41661529 38.30458248 -2.73519984 35.43928404 0.41015625 29.484375 C2.42173466 24.28233966 2.91234489 19.53761767 1.1875 14.1875 C-1.36027573 8.43778991 -4.82299825 3.80019766 -10.75 1.375 C-20.65321505 -1.64473035 -28.06199284 1.47074843 -34.33984375 9.3359375 Z " fill="#010101" transform="translate(255.75,186.6875)"/>
<path d="M0 0 C3.53167654 2.81854955 5.9106093 6.64243719 7 11 C7.14982091 14.35288875 7.0896037 17.63986133 7 21 C1.72 21 -3.56 21 -9 21 C-9 21.66 -9 22.32 -9 23 C-3.76528314 23.75612577 0.77254141 24.2063366 6 23 C5.85831863 24.43791516 5.71148957 25.8753237 5.5625 27.3125 C5.48128906 28.11300781 5.40007812 28.91351563 5.31640625 29.73828125 C5 32 5 32 4 35 C-0.83386408 37.41693204 -8.09356387 36.7050517 -13.23828125 35.45703125 C-17.91233915 33.24954936 -20.10395882 29.31158761 -22.1171875 24.78515625 C-24.08627802 18.57293705 -24.01046669 12.5562407 -21.375 6.5625 C-18.9581866 2.38021297 -15.70254063 -0.10467979 -11.08984375 -1.6328125 C-7.19671295 -2.31683922 -3.642145 -1.43084268 0 0 Z M-9 9 C-9.33 10.32 -9.66 11.64 -10 13 C-8.35 13 -6.7 13 -5 13 C-5.33 11.68 -5.66 10.36 -6 9 C-6.99 9 -7.98 9 -9 9 Z " fill="#010101" transform="translate(168,307)"/>
<path d="M0 0 C3.485625 0.0825 6.97125 0.165 10.5625 0.25 C10.5625 8.17 10.5625 16.09 10.5625 24.25 C11.2225 24.25 11.8825 24.25 12.5625 24.25 C12.51609375 23.54875 12.4696875 22.8475 12.421875 22.125 C12.11573084 14.07778207 13.41294599 8.9722002 18.625 2.8125 C21.99996575 0.09075343 25.00858051 0.11397383 29.1875 0.125 C30.16976562 0.12242187 31.15203125 0.11984375 32.1640625 0.1171875 C34.5625 0.25 34.5625 0.25 35.5625 1.25 C35.43669322 6.47582023 34.92390321 11.52719357 32.5625 16.25 C31.2425 16.25 29.9225 16.25 28.5625 16.25 C28.5625 19.22 28.5625 22.19 28.5625 25.25 C30.2125 24.59 31.8625 23.93 33.5625 23.25 C34.5525 28.2 35.5425 33.15 36.5625 38.25 C31.95810717 39.78479761 27.15212356 40.20746618 22.5234375 38.49609375 C19.11209553 36.64525928 16.43877252 34.67143813 14.5625 31.25 C14.5625 30.26 14.5625 29.27 14.5625 28.25 C13.9025 28.25 13.2425 28.25 12.5625 28.25 C12.47162109 29.20712891 12.47162109 29.20712891 12.37890625 30.18359375 C12.29511719 31.00988281 12.21132813 31.83617187 12.125 32.6875 C12.04378906 33.51121094 11.96257812 34.33492188 11.87890625 35.18359375 C11.5625 37.25 11.5625 37.25 10.5625 38.25 C6.82012998 38.53106102 3.06416221 38.48185411 -0.6875 38.5 C-1.73808594 38.520625 -2.78867187 38.54125 -3.87109375 38.5625 C-5.39669922 38.57023437 -5.39669922 38.57023437 -6.953125 38.578125 C-7.88415039 38.5874707 -8.81517578 38.59681641 -9.77441406 38.60644531 C-14.43268667 37.98295081 -16.8767233 35.98212513 -19.6875 32.3125 C-23.42747685 25.76754052 -23.5698 17.86787409 -21.7890625 10.60546875 C-19.98820574 5.9647994 -18.18271625 3.446407 -13.62866211 1.01757812 C-9.2083448 -0.53088735 -4.62245708 -0.155169 0 0 Z M18.25 7.75 C14.61567726 13.13418184 15.11323038 18.9768649 15.5625 25.25 C17.25496475 30.42142008 19.98926085 33.31622394 24.5625 36.25 C27.37333181 36.65010038 29.70326228 36.49648601 32.5625 36.25 C32.2325 33.28 31.9025 30.31 31.5625 27.25 C29.9125 26.92 28.2625 26.59 26.5625 26.25 C25.01450663 21.60601989 25.06655667 16.92482292 26.5625 12.25 C28.2125 11.92 29.8625 11.59 31.5625 11.25 C31.748125 9.950625 31.93375 8.65125 32.125 7.3125 C32.22941406 6.58160156 32.33382812 5.85070312 32.44140625 5.09765625 C32.48136719 4.48792969 32.52132812 3.87820313 32.5625 3.25 C31.53720042 2.01728572 31.53720042 2.01728572 29.375 2 C24.56889211 2.42720959 21.50280431 4.2334548 18.25 7.75 Z M-17.4375 8.25 C-20.40074304 14.23716683 -20.67081629 21.37993853 -18.64453125 27.73828125 C-16.92158399 31.34920903 -15.84412648 32.97891568 -12.4375 35.25 C-10.11362053 35.64387788 -7.77956251 35.98486085 -5.4375 36.25 C-4.77167346 33.22411503 -4.28468157 30.35379497 -4.4375 27.25 C-5.675 26.0125 -5.675 26.0125 -6.9375 24.75 C-9.4375 22.25 -9.4375 22.25 -9.55078125 19.94921875 C-9.27934034 17.68251087 -8.92797181 15.47897583 -8.4375 13.25 C-6.78135343 12.86781233 -5.11292976 12.53604898 -3.4375 12.25 C-1.75449331 13.93300669 -2.20940923 16.07008727 -2.12109375 18.37890625 C-2.07919922 19.41337891 -2.03730469 20.44785156 -1.99414062 21.51367188 C-1.95482422 22.60228516 -1.91550781 23.69089844 -1.875 24.8125 C-1.83181641 25.90498047 -1.78863281 26.99746094 -1.74414062 28.12304688 C-1.63768042 30.83186768 -1.53705193 33.54091651 -1.4375 36.25 C1.8625 36.25 5.1625 36.25 8.5625 36.25 C9.2225 33.28 9.8825 30.31 10.5625 27.25 C9.9025 27.25 9.2425 27.25 8.5625 27.25 C8.5625 19.33 8.5625 11.41 8.5625 3.25 C5.5925 3.25 2.6225 3.25 -0.4375 3.25 C-0.4375 3.91 -0.4375 4.57 -0.4375 5.25 C-0.953125 4.92 -1.46875 4.59 -2 4.25 C-8.60663901 1.539584 -12.67562886 3.26664648 -17.4375 8.25 Z M-6.4375 14.25 C-7.79189668 16.95879335 -7.50251451 19.25933268 -7.4375 22.25 C-5.4575 23.24 -5.4575 23.24 -3.4375 24.25 C-3.4375 21.28 -3.4375 18.31 -3.4375 15.25 C-4.4275 14.92 -5.4175 14.59 -6.4375 14.25 Z " fill="#020202" transform="translate(302.4375,304.75)"/>
<path d="M0 0 C4.29 0 8.58 0 13 0 C13.07446471 5.42599527 13.12875037 10.8516894 13.16479492 16.27807617 C13.17982988 18.12187892 13.20026333 19.96564622 13.22631836 21.80932617 C13.26293561 24.4680255 13.27977943 27.12624971 13.29296875 29.78515625 C13.30845261 30.60210464 13.32393646 31.41905304 13.33988953 32.26075745 C13.34143665 37.58833778 12.57345252 41.29912995 10 46 C6.47320901 48.35119399 4.97120515 48.21443452 0.8125 48.125 C-0.27417969 48.10695313 -1.36085937 48.08890625 -2.48046875 48.0703125 C-3.31191406 48.04710937 -4.14335937 48.02390625 -5 48 C-4.71890887 46.35232753 -4.42481474 44.70686855 -4.125 43.0625 C-3.96257812 42.14597656 -3.80015625 41.22945313 -3.6328125 40.28515625 C-3.42398438 39.53105469 -3.21515625 38.77695312 -3 38 C-2.01 37.505 -2.01 37.505 -1 37 C-0.67 29.08 -0.34 21.16 0 13 C-0.99 13 -1.98 13 -3 13 C-2.01 8.71 -1.02 4.42 0 0 Z " fill="#010101" transform="translate(179,306)"/>
<path d="M0 0 C4.95 0 9.9 0 15 0 C15.66 1.98 16.32 3.96 17 6 C17.33 6 17.66 6 18 6 C18.33 4.02 18.66 2.04 19 0 C24.28 0 29.56 0 35 0 C34.30591913 7.65416964 32.3947878 14.94043099 30.5 22.375 C30.17540096 23.67047769 29.85117925 24.96604998 29.52734375 26.26171875 C27.14060834 35.71878332 27.14060834 35.71878332 26 38 C20.39 38 14.78 38 9 38 C6.48589181 29.06094867 3.97943614 20.12390948 1.6875 11.125 C1.36136719 9.84882813 1.03523437 8.57265625 0.69921875 7.2578125 C0 4 0 4 0 0 Z M3 3 C5.64 13.89 8.28 24.78 11 36 C15.29 36 19.58 36 24 36 C26.64 25.11 29.28 14.22 32 3 C28.7 3 25.4 3 22 3 C21.49645133 5.43681587 20.99703244 7.87435439 20.5 10.3125 C20.28537109 11.34793945 20.28537109 11.34793945 20.06640625 12.40429688 C19.47374956 15.32524773 19 18.01108122 19 21 C18.01 21 17.02 21 16 21 C15.95101563 20.3709375 15.90203125 19.741875 15.8515625 19.09375 C15.36564801 13.53086686 14.49446374 8.38006948 13 3 C9.7 3 6.4 3 3 3 Z " fill="#020202" transform="translate(247,305)"/>
<path d="M0 0 C4.29 0 8.58 0 13 0 C11.125 10.875 11.125 10.875 10 12 C7.81360547 12.07258946 5.62499611 12.08373783 3.4375 12.0625 C1.64119141 12.04896484 1.64119141 12.04896484 -0.19140625 12.03515625 C-1.11824219 12.02355469 -2.04507813 12.01195312 -3 12 C-2.01 8.04 -1.02 4.08 0 0 Z " fill="#010101" transform="translate(181,292)"/>
</svg>
